HIERARCHY
ROOT Hips
{
	OFFSET 0.000000 0.000000 0.000000
	CHANNELS 6 Xposition Yposition Zposition Xrotation Yrotation Zrotation
	JOINT LeftUpLeg_virtual
	{
		OFFSET 0.000000 0.000000 0.000000
		CHANNELS 3 Xrotation Yrotation Zrotation
		JOINT LeftUpLeg
		{
			OFFSET 10.205400 -3.823500 0.155100
			CHANNELS 3 Xrotation Yrotation Zrotation
			JOINT LeftLeg
			{
				OFFSET 0.708757 -12.982077 0.567790
				CHANNELS 3 Xrotation Yrotation Zrotation
				JOINT LeftFoot
				{
					OFFSET -0.708756 -10.717838 -2.184338
					CHANNELS 3 Xrotation Yrotation Zrotation
					JOINT LeftToeBase
					{
						OFFSET 0.108149 -7.191104 7.560241
						CHANNELS 3 Xrotation Yrotation Zrotation
						JOINT LeftToe_End
						{
							OFFSET 0.070230 0.081724 4.490308
							CHANNELS 3 Xrotation Yrotation Zrotation
							End Site
							{
								OFFSET 0 0 0
							}
						}
					}
				}
			}
		}
	}
	JOINT RightUpLeg_virtual
	{
		OFFSET 0.000000 0.000000 0.000000
		CHANNELS 3 Xrotation Yrotation Zrotation
		JOINT RightUpLeg
		{
			OFFSET -10.205400 -3.823500 0.005500
			CHANNELS 3 Xrotation Yrotation Zrotation
			JOINT RightLeg
			{
				OFFSET -0.708756 -12.982134 0.610632
				CHANNELS 3 Xrotation Yrotation Zrotation
				JOINT RightFoot
				{
					OFFSET 0.708754 -10.717769 -1.945823
					CHANNELS 3 Xrotation Yrotation Zrotation
					JOINT RightToeBase
					{
						OFFSET -0.108140 -7.191069 7.372968
						CHANNELS 3 Xrotation Yrotation Zrotation
						JOINT RightToe_End
						{
							OFFSET -0.070227 0.081735 4.479403
							CHANNELS 3 Xrotation Yrotation Zrotation
							End Site
							{
								OFFSET 0 0 0
							}
						}
					}
				}
			}
		}
	}
	JOINT Spine_virtual
	{
		OFFSET 0.000000 0.000000 0.000000
		CHANNELS 3 Xrotation Yrotation Zrotation
		JOINT Spine
		{
			OFFSET 0.000000 6.876099 0.125700
			CHANNELS 3 Xrotation Yrotation Zrotation
			JOINT Spine1
			{
				OFFSET 0.000000 5.730043 0.104720
				CHANNELS 3 Xrotation Yrotation Zrotation
				JOINT Spine1_split
				{
					OFFSET 0.000000 5.730043 0.104720
					CHANNELS 3 Xrotation Yrotation Zrotation
					JOINT Spine2
					{
						OFFSET 0.000000 5.730043 0.104720
						CHANNELS 3 Xrotation Yrotation Zrotation
						JOINT Neck_virtual
						{
							OFFSET 0.000000 0.000000 0.000000
							CHANNELS 3 Xrotation Yrotation Zrotation
							JOINT Neck
							{
								OFFSET 0.000000 10.314075 0.188496
								CHANNELS 3 Xrotation Yrotation Zrotation
								JOINT Head
								{
									OFFSET 0.000000 7.643700 -2.377400
									CHANNELS 3 Xrotation Yrotation Zrotation
									JOINT HeadTop_End
									{
										OFFSET 0.000000 43.788605 -13.619600
										CHANNELS 3 Xrotation Yrotation Zrotation
										End Site
										{
											OFFSET 0 0 0
										}
									}
								}
							}
						}
						JOINT LeftShoulder_virtual
						{
							OFFSET 0.000000 0.000000 0.000000
							CHANNELS 3 Xrotation Yrotation Zrotation
							JOINT LeftShoulder
							{
								OFFSET 2.196100 4.412489 0.087492
								CHANNELS 3 Xrotation Yrotation Zrotation
								JOINT LeftShoulder_split
								{
									OFFSET 2.196100 4.412489 0.087492
									CHANNELS 3 Xrotation Yrotation Zrotation
									JOINT LeftArm
									{
										OFFSET 8.771219 -2.981674 -0.026999
										CHANNELS 3 Xrotation Yrotation Zrotation
										JOINT LeftForeArm
										{
											OFFSET 8.512804 0.000000 -0.000000
											CHANNELS 3 Xrotation Yrotation Zrotation
											JOINT LeftHand
											{
												OFFSET 18.484802 0.000000 -0.000000
												CHANNELS 3 Xrotation Yrotation Zrotation
												End Site
												{
													OFFSET 0 0 0
												}
											}
										}
									}
								}
							}
						}
						JOINT RightShoulder_virtual
						{
							OFFSET 0.000000 0.000000 0.000000
							CHANNELS 3 Xrotation Yrotation Zrotation
							JOINT RightShoulder
							{
								OFFSET -2.196100 4.412496 0.070690
								CHANNELS 3 Xrotation Yrotation Zrotation
								JOINT RightShoulder_split
								{
									OFFSET -2.196100 4.412496 0.070690
									CHANNELS 3 Xrotation Yrotation Zrotation
									JOINT RightArm
									{
										OFFSET -8.771282 -2.981682 -0.094208
										CHANNELS 3 Xrotation Yrotation Zrotation
										JOINT RightForeArm
										{
											OFFSET -8.494598 0.000000 0.000000
											CHANNELS 3 Xrotation Yrotation Zrotation
											JOINT RightHand
											{
												OFFSET -18.483803 0.000000 0.000001
												CHANNELS 3 Xrotation Yrotation Zrotation
												End Site
												{
													OFFSET 0 0 0
												}
											}
										}
									}
								}
							}
						}
					}
				}
			}
		}
	}
}
MOTION
Frames: 4
Frame Time: 0.03333333
30.270254 26.073765 79.015991 0.000000 0.000000 0.000000 172.162240 22.052266 -154.891629 -72.387178 -17.655578 38.055676 96.543870 -16.735832 -39.748696 -15.357566 9.816394 2.661322 -63.524693 -16.536156 3.958215 0.000000 0.000000 0.000000 172.184670 40.660256 -161.067499 -73.367788 1.948552 -52.294274 83.770399 10.438948 -14.639969 -31.239305 -31.887807 56.616753 -20.556568 7.526673 -27.890873 0.000000 0.000000 0.000000 156.236124 46.414008 -141.855598 22.114199 14.878736 19.453618 1.417939 8.967194 7.090969 0.037308 6.273245 -0.818635 0.000000 0.000000 0.000000 8.807182 11.900162 3.513688 -0.526784 26.204431 25.655534 -149.874827 -54.273902 -146.817812 0.000000 0.000000 0.000000 26.028948 9.589608 6.157539 14.944408 -10.308028 27.178719 -31.422442 -5.506680 -4.221409 -10.529469 -62.301557 -9.488827 24.053691 11.849432 6.633994 0.000000 0.000000 0.000000 26.442469 10.663119 -4.250070 -7.531254 -2.340423 -10.809804 -23.799666 -26.906246 17.342438 -65.325596 15.451782 19.143434 27.969379 42.204944 4.654192 0.000000 0.000000 0.000000 
33.334702 23.853443 82.972267 0.000000 0.000000 0.000000 -156.818671 -0.511223 -168.209528 -82.589288 -15.952335 33.738348 89.553452 -17.004835 -34.673896 -9.129875 9.323399 -1.356668 -56.576496 -17.943470 6.649304 0.000000 0.000000 0.000000 -161.231615 11.052875 -177.882605 -82.596918 6.392846 -41.974576 81.984694 8.200317 -13.588427 -29.326046 -26.667010 58.234452 -19.985656 6.046596 -30.072899 0.000000 0.000000 0.000000 -160.276167 30.054212 -176.257294 20.791965 14.955205 16.228002 0.107888 10.214300 8.081090 0.338441 7.222532 -0.938264 0.000000 0.000000 0.000000 7.954432 13.604082 3.498744 -3.877835 22.051580 26.259644 -158.254732 -48.018918 -163.336188 0.000000 0.000000 0.000000 27.222308 11.594932 8.117951 15.021046 -11.998595 26.929088 -32.015296 -2.304857 -6.398819 -8.283495 -57.073692 -4.666019 18.458882 1.012538 6.716523 0.000000 0.000000 0.000000 28.541515 11.770686 -5.059963 -6.567208 3.924177 -9.295108 -25.581802 -22.208434 25.688184 -57.146823 11.711942 12.881353 37.958513 59.090384 -4.625795 0.000000 0.000000 0.000000 
36.522068 21.716217 87.542236 0.000000 0.000000 0.000000 -141.946835 -10.043059 -173.919497 -94.112070 -15.422649 30.213533 85.930753 -21.367917 -26.487675 4.712358 5.608096 -6.630604 -50.361730 -17.242927 6.891901 0.000000 0.000000 0.000000 -148.616078 -4.558282 178.112045 -93.673763 10.209881 -31.712640 77.243361 6.078257 -11.469242 -22.841136 -17.328774 61.169508 -17.687637 3.902339 -31.184902 0.000000 0.000000 0.000000 -142.066664 11.950545 172.897756 20.528480 13.685421 14.002108 -1.133002 10.146940 8.285892 0.353280 6.692764 -1.016924 0.000000 0.000000 0.000000 6.400247 14.137071 3.754085 -6.665995 19.685975 27.512040 -157.861449 -46.427562 -174.662567 0.000000 0.000000 0.000000 28.608422 12.029339 9.079522 14.648686 -12.182175 24.358189 -34.612380 2.212991 -7.988932 -8.746004 -48.186472 -2.040252 15.778118 -15.052632 8.218670 0.000000 0.000000 0.000000 28.927818 11.611215 -5.944320 -4.314390 12.894398 -8.015527 -26.649037 -19.661649 34.644092 -50.232831 6.497221 6.776066 52.324717 74.048130 -17.933160 0.000000 0.000000 0.000000 
39.775429 19.460629 92.251076 0.000000 0.000000 0.000000 -134.647371 -11.455218 -179.677552 -104.097854 -15.361451 27.548545 87.825462 -28.935912 -15.909826 20.034707 -0.951718 -9.215681 -43.464131 -15.327679 5.180868 0.000000 0.000000 0.000000 -139.673721 -11.897138 175.561338 -104.377284 12.689410 -22.729095 72.012474 3.538077 -8.003481 -16.060667 -6.115550 61.187437 -12.114088 1.068594 -31.923553 0.000000 0.000000 0.000000 -133.185793 -0.610524 170.092980 21.814260 11.092397 13.054967 -2.360644 8.837532 7.703527 0.188531 4.959901 -0.876191 0.000000 0.000000 0.000000 3.829403 13.459829 3.968086 -8.579433 19.349368 29.015053 -151.874994 -50.160100 176.949465 0.000000 0.000000 0.000000 30.083271 10.904189 8.852636 14.030085 -10.893330 19.272892 -39.336545 7.200506 -7.963061 -8.529447 -38.790051 -0.376757 18.953179 -33.651625 12.994320 0.000000 0.000000 0.000000 27.580499 10.276426 -6.822381 -1.296614 22.717812 -7.192050 -22.066393 -21.526420 41.639408 -46.139475 1.454979 1.944881 107.977354 84.935151 -72.532005 0.000000 0.000000 0.000000 
